<?xml version="1.0" standalone="no"?>
<!DOCTYPE svg PUBLIC "-//W3C//DTD SVG 20010904//EN"
 "http://www.w3.org/TR/2001/REC-SVG-20010904/DTD/svg10.dtd">
<svg version="1.0" xmlns="http://www.w3.org/2000/svg"
 width="594.000000pt" height="594.000000pt" viewBox="0 0 594.000000 594.000000"
 preserveAspectRatio="xMidYMid meet">
<metadata>
Created by potrace 1.11, written by Peter Selinger 2001-2013
</metadata>
<g transform="translate(0.000000,594.000000) scale(0.100000,-0.100000)"
fill="#000000" stroke="none">
<path d="M2794 5841 c-39 -24 -66 -68 -92 -151 -40 -124 -72 -339 -72 -481 0
-32 -2 -59 -5 -59 -3 0 -45 32 -93 71 -107 87 -262 191 -327 220 -63 28 -137
29 -166 3 -67 -59 -63 -189 10 -407 17 -48 28 -87 26 -87 -2 0 -55 29 -118 64
-153 86 -234 117 -321 123 -56 4 -79 2 -104 -11 -115 -59 -89 -217 77 -481 34
-54 60 -99 59 -101 -2 -1 -47 -12 -100 -23 -53 -11 -113 -27 -133 -35 -88 -37
-131 -94 -119 -156 9 -42 86 -125 151 -162 29 -16 53 -33 53 -37 0 -4 -24 -18
-52 -31 -78 -36 -175 -98 -198 -127 -32 -41 -27 -104 11 -148 33 -37 158 -104
239 -126 25 -7 47 -14 49 -16 2 -2 -27 -36 -66 -76 -111 -114 -178 -234 -204
-367 -21 -110 23 -169 120 -157 25 3 54 9 63 12 17 7 17 4 2 -36 -23 -65 -44
-183 -44 -247 0 -63 23 -112 61 -132 22 -12 98 -9 133 6 16 6 18 4 12 -11 -11
-29 -8 -200 4 -246 7 -24 27 -58 45 -76 27 -27 41 -33 74 -33 51 0 92 20 124
61 l24 31 6 -158 c4 -108 14 -201 32 -289 14 -71 30 -165 36 -208 l11 -77 -35
-40 c-44 -48 -109 -182 -133 -275 -27 -100 -27 -380 0 -480 44 -169 144 -318
251 -373 40 -21 64 -26 125 -27 41 0 94 3 117 7 38 7 45 5 85 -28 23 -20 71
-51 106 -67 l62 -31 0 -51 c0 -128 59 -215 146 -215 84 0 132 48 148 146 l7
41 202 -1 c211 -1 328 11 440 45 33 10 61 17 62 16 1 -1 9 -28 18 -59 22 -71
62 -108 117 -108 86 0 126 74 137 260 6 97 9 108 38 150 76 106 148 278 176
420 9 45 18 65 35 77 17 11 33 44 58 127 l35 112 56 23 c109 45 144 150 74
221 l-29 28 44 104 c63 150 67 157 89 164 23 7 111 189 104 216 -3 10 1 21 8
26 18 10 96 182 94 207 -2 36 1 43 21 48 14 4 35 36 66 102 41 85 45 99 34
124 -8 19 -8 35 0 55 28 75 0 113 -115 155 -107 39 -138 39 -170 5 -14 -15
-25 -31 -25 -35 0 -5 -9 -9 -19 -9 -25 0 -107 -186 -97 -223 3 -15 1 -27 -5
-29 -6 -2 -21 -35 -33 -73 l-23 -70 -27 55 c-15 30 -34 62 -41 70 -8 8 -21 48
-30 88 l-17 73 41 82 c23 46 41 89 41 97 0 8 -32 89 -72 180 -39 91 -74 189
-79 218 -4 29 -16 65 -26 80 -15 23 -17 43 -15 127 4 124 -10 227 -36 260 -20
25 -19 40 34 322 l6 32 -33 -9 c-19 -6 -35 -10 -36 -10 -12 0 -42 88 -47 140
-25 246 -74 423 -177 636 -63 133 -94 167 -143 162 -25 -2 -35 -11 -51 -45
-11 -23 -22 -42 -25 -43 -3 0 -20 44 -38 98 -46 132 -114 271 -151 306 -40 38
-81 39 -121 1 l-29 -27 -10 39 c-19 71 -87 246 -126 324 -69 140 -160 239
-220 239 -11 0 -34 -9 -51 -19z m105 -65 c40 -35 116 -159 154 -250 86 -204
203 -623 263 -933 30 -159 29 -184 -5 -129 l-24 39 -29 -32 c-15 -17 -30 -31
-32 -31 -25 0 -145 236 -246 480 -129 314 -184 396 -258 388 l-35 -4 7 73 c3
41 15 119 26 174 47 227 100 295 179 225z m-702 -390 c121 -57 348 -231 483
-372 169 -176 275 -326 383 -541 39 -79 68 -145 65 -149 -4 -3 -34 9 -68 27
-37 20 -64 29 -68 23 -94 -140 -92 -138 -158 -114 -12 5 -56 68 -108 157 -258
433 -457 679 -608 751 -40 19 -60 35 -65 52 -13 42 -9 155 6 173 19 24 77 21
138 -7z m1145 -171 c75 -109 276 -726 304 -932 6 -50 5 -52 -24 -67 -35 -18
-36 -17 -94 99 -27 55 -37 92 -47 171 -21 178 -82 398 -136 490 -27 46 -54 67
-82 62 -27 -5 -42 74 -28 139 22 94 59 108 107 38z m-1563 -168 c100 -43 311
-169 422 -252 201 -150 353 -321 468 -529 29 -52 31 -62 20 -82 -25 -48 -59
-29 -197 103 -131 127 -164 148 -379 247 -179 82 -213 103 -328 206 -111 99
-161 130 -205 130 -37 0 -37 0 -55 61 -20 72 -14 121 18 145 35 25 140 13 236
-29z m1877 -159 c86 -103 212 -484 217 -659 l2 -63 -43 -9 c-62 -12 -72 -6
-72 50 -1 72 -23 182 -75 375 -47 176 -65 218 -89 218 -10 0 -12 10 -5 43 10
53 19 77 29 77 5 0 21 -15 36 -32z m-1726 -398 c218 -27 394 -101 552 -233 26
-21 49 -46 52 -54 5 -11 -14 -64 -29 -81 -2 -2 -25 8 -52 21 -121 61 -217 77
-503 86 -219 7 -255 11 -342 34 -105 29 -225 74 -234 88 -31 51 115 114 319
138 104 12 142 12 237 1z m114 -372 c62 -10 177 -48 238 -79 l37 -19 -17 -31
c-18 -32 -14 -31 -103 -14 -32 6 -38 4 -44 -14 -3 -12 -19 -27 -33 -35 -36
-19 -251 -62 -379 -76 -141 -16 -345 -9 -400 15 -84 35 -46 92 112 170 187 92
377 119 589 83z m-69 -355 c-4 -16 -8 -29 -9 -30 -2 -2 -25 1 -52 6 -27 5 -52
7 -55 3 -3 -4 -11 -33 -18 -64 -13 -62 -16 -64 -74 -47 -22 6 -41 9 -43 6 -10
-10 -44 -149 -38 -158 19 -31 -201 -263 -285 -301 -67 -31 -72 -6 -30 128 52
163 194 323 364 409 73 38 180 73 224 74 20 1 22 -2 16 -26z m800 -47 c19 -8
58 -33 88 -55 30 -23 59 -41 65 -41 7 0 12 -17 12 -43 0 -57 -45 -128 -106
-167 -199 -126 -441 34 -328 217 54 86 177 127 269 89z m999 -27 c30 -14 53
-59 66 -130 14 -70 -2 -123 -50 -171 -34 -34 -43 -38 -90 -38 -97 0 -160 60
-160 153 0 27 12 46 68 104 90 95 112 106 166 82z m-434 -116 c88 -214 177
-304 328 -333 34 -7 89 -10 121 -7 l58 5 -31 -64 c-19 -40 -36 -62 -44 -59 -9
3 -10 0 -3 -14 6 -10 8 -21 5 -24 -3 -3 0 -8 7 -13 8 -5 10 -3 5 7 -4 8 -1 5
8 -5 8 -10 13 -23 10 -28 -4 -5 2 -9 12 -8 11 1 26 2 34 1 13 -1 13 -2 0 -12
-12 -9 -11 -10 8 -6 12 3 22 2 22 -2 0 -4 8 -7 18 -8 9 0 42 -4 72 -7 30 -3
47 -3 37 0 -10 3 -17 9 -15 12 2 4 18 36 36 71 l31 64 19 -44 c11 -24 40 -95
66 -157 l48 -112 -31 -65 c-16 -36 -34 -65 -38 -64 -4 0 -20 25 -36 56 -16 33
-21 50 -12 43 26 -22 26 -6 -1 33 -14 22 -33 37 -45 37 -11 0 -22 7 -25 15 -4
8 -14 15 -23 15 -10 0 -21 3 -25 8 -4 4 -11 7 -14 7 -4 1 -23 6 -43 13 -47 16
-183 9 -225 -12 -39 -20 -63 -47 -69 -76 -3 -13 -10 -27 -17 -31 -7 -5 -13
-12 -13 -16 -1 -4 -11 -35 -24 -68 -12 -33 -34 -107 -47 -163 -22 -91 -47
-162 -58 -162 -2 0 5 28 15 62 48 154 63 372 34 497 -9 35 -52 152 -97 260
-80 193 -82 198 -86 295 -4 88 -6 98 -18 81 -18 -24 -18 -115 0 -180 7 -28 47
-136 89 -240 89 -223 102 -284 94 -445 -6 -109 -47 -314 -66 -333 -11 -11 -77
70 -73 89 2 8 -4 17 -12 20 -9 3 -13 10 -10 15 3 5 1 9 -5 9 -5 0 -8 11 -7 25
3 24 -11 29 -27 10 -5 -5 -5 1 -2 15 4 14 7 27 7 30 0 23 -5 30 -26 30 -19 0
-24 5 -23 20 1 22 22 27 30 8 3 -8 6 -6 6 5 1 11 -7 17 -21 18 -23 1 -23 1 1
8 21 6 22 8 8 19 -9 8 -14 19 -11 27 7 18 -36 31 -47 14 -4 -7 -6 -16 -3 -20
2 -4 -5 -5 -16 -2 -17 5 -18 8 -8 21 7 9 8 13 2 9 -6 -4 -19 2 -28 12 -13 14
-14 21 -5 27 7 4 10 3 5 -4 -3 -6 -2 -13 4 -17 5 -3 10 -1 10 4 0 6 12 11 26
11 14 0 23 -4 20 -8 -2 -4 4 -8 14 -9 17 -2 18 1 7 18 -6 10 -24 20 -39 20
-26 1 -38 3 -55 9 -5 1 -12 2 -16 1 -4 -1 -10 6 -13 14 -3 8 -10 12 -15 9 -5
-3 -9 0 -9 5 0 7 22 10 55 10 30 -1 55 -6 55 -10 0 -5 4 -9 10 -9 5 0 -3 20
-18 44 -17 27 -30 39 -34 32 -6 -8 -8 -7 -8 2 0 6 -5 12 -11 12 -5 0 -7 -6 -3
-12 6 -10 4 -10 -7 0 -14 13 -108 18 -95 5 4 -5 10 -7 13 -5 4 3 33 -43 33
-53 0 -3 -74 69 -88 87 -9 11 -10 18 -2 23 6 4 9 1 8 -6 -2 -9 16 -13 64 -14
53 -2 65 1 61 12 -3 8 -8 12 -10 9 -3 -3 -14 5 -24 17 -10 12 -18 16 -19 10 0
-7 -10 -13 -22 -13 -21 0 -21 0 -2 16 18 15 18 15 -2 5 -12 -6 -25 -7 -29 -3
-5 4 -5 2 -1 -5 4 -7 -3 -13 -21 -15 -19 -2 -27 -8 -25 -18 3 -11 -1 -11 -16
3 -10 9 -22 14 -27 10 -4 -5 -5 -3 -1 4 4 7 0 12 -11 12 -10 0 -36 4 -58 9
-38 9 -36 9 28 10 37 0 65 -3 63 -7 -3 -4 -1 -13 5 -21 7 -12 9 -10 9 8 0 18
6 22 32 22 29 0 33 11 5 16 -7 1 -21 6 -31 10 -14 5 -17 4 -11 -5 6 -10 -10
-12 -73 -10 -61 3 -78 1 -75 -8 5 -11 -12 -15 -62 -13 -3 0 -18 -6 -35 -15
-37 -19 -49 -19 -24 0 18 14 17 14 -8 4 -16 -7 -28 -16 -28 -20 0 -5 -10 -13
-21 -20 -17 -9 -20 -8 -14 3 3 7 0 5 -8 -5 -9 -10 -22 -20 -30 -21 -8 -1 -21
-7 -28 -13 -8 -6 -86 -55 -174 -108 -251 -152 -443 -298 -414 -315 7 -5 9 -18
5 -34 -5 -22 -10 -25 -25 -16 -54 28 -84 193 -41 223 11 8 17 16 14 20 -3 3 7
4 23 2 34 -5 63 3 63 16 0 6 -5 7 -10 4 -5 -3 -10 -1 -10 4 0 6 -7 11 -16 11
-9 0 -12 -5 -8 -12 5 -10 4 -10 -6 -1 -7 6 -20 9 -29 6 -9 -4 -13 -3 -10 1 4
4 15 8 25 10 23 5 95 45 107 61 6 6 7 3 4 -7 -3 -9 -2 -18 3 -20 5 -2 6 -14 3
-28 l-7 -25 -7 25 c-6 23 -7 23 -8 -7 -1 -19 -6 -33 -13 -33 -9 -1 -8 -4 2 -9
18 -11 90 -10 90 1 0 4 9 8 20 8 25 0 26 17 3 23 -14 4 -13 5 4 6 12 0 24 -5
26 -11 3 -8 6 -6 6 4 1 10 5 17 10 15 16 -4 140 83 162 115 15 20 17 29 8 26
-10 -3 -18 10 -26 44 -7 26 -22 67 -33 90 -15 32 -17 44 -8 50 19 11 179 63
288 93 285 78 440 149 554 256 39 37 86 93 105 125 58 100 61 104 75 104 8 0
28 -34 46 -77z m675 -288 c30 -29 33 -80 10 -146 -23 -65 -42 -81 -89 -76 -23
2 -60 12 -83 21 l-41 18 15 36 c37 90 108 171 151 172 7 0 24 -11 37 -25z
m-2349 -320 c-5 -87 -37 -205 -63 -230 -24 -25 -84 -16 -101 15 -15 28 -10
137 9 218 16 63 69 179 111 239 l33 48 8 -105 c4 -58 6 -141 3 -185z m505 150
c16 -9 43 -34 59 -57 28 -39 70 -150 70 -187 0 -11 -23 -25 -72 -44 -85 -32
-100 -33 -134 -11 -34 23 -51 58 -64 136 -16 89 -1 144 43 163 42 18 62 18 98
0z m727 -155 c79 -36 157 -123 297 -335 73 -110 152 -218 174 -240 40 -38 43
-39 68 -25 40 22 62 68 95 193 51 195 99 276 190 321 60 30 119 33 195 11 86
-26 162 -128 199 -268 8 -29 14 -57 14 -64 0 -6 -32 5 -71 25 -68 35 -77 37
-168 37 -83 0 -104 -4 -153 -27 -80 -37 -152 -107 -191 -187 -29 -59 -32 -74
-32 -156 0 -80 4 -97 32 -157 38 -81 102 -146 181 -185 51 -25 67 -28 162 -28
96 0 110 2 160 29 30 15 63 36 74 45 18 15 18 14 12 -34 -3 -27 -15 -140 -26
-250 -50 -488 -68 -601 -121 -765 -53 -160 -112 -263 -204 -355 -91 -92 -177
-140 -309 -174 -104 -27 -314 -44 -451 -36 -152 8 -165 12 -165 40 0 13 -4 26
-8 29 -4 3 -13 -35 -19 -84 -14 -108 -31 -145 -77 -160 -81 -26 -119 35 -142
230 -4 36 -9 57 -12 48 -2 -10 -9 -18 -16 -18 -17 0 -126 66 -154 94 l-24 23
35 22 c19 11 54 42 77 67 98 106 136 268 127 542 -7 232 -45 356 -140 459 -55
60 -111 91 -198 109 -90 19 -159 12 -216 -21 l-42 -23 -6 46 c-4 26 -20 121
-36 212 -36 199 -46 361 -30 489 13 106 0 90 160 204 163 117 423 265 556 317
65 25 148 25 203 0z m277 -70 c3 -5 1 -10 -4 -10 -6 0 -11 5 -11 10 0 6 2 10
4 10 3 0 8 -4 11 -10z m494 -2 c-2 -2 -17 -14 -34 -28 -22 -19 -26 -20 -15 -5
18 25 44 45 49 39 2 -2 2 -5 0 -6z m881 -119 c0 -5 7 -6 15 -3 8 4 15 1 15 -5
0 -6 -3 -10 -7 -10 -33 5 -43 -3 -43 -36 0 -35 12 -46 27 -22 4 6 6 23 4 37
-2 14 0 22 5 18 4 -4 13 -3 20 3 26 22 134 -27 134 -60 0 -28 -109 -285 -253
-596 -192 -417 -274 -619 -343 -844 -19 -63 -37 -117 -40 -120 -6 -5 -1 42 11
110 2 13 6 40 8 59 3 19 7 42 10 50 3 8 8 29 11 45 5 22 4 26 -4 15 -8 -13
-10 -12 -10 3 0 10 7 20 15 23 10 4 12 11 6 23 -14 26 -7 80 13 99 11 9 16 11
12 5 -4 -7 -2 -13 3 -13 14 0 14 17 0 25 -6 5 -4 12 8 22 15 12 15 14 2 10
-14 -5 -16 -1 -10 21 6 19 14 26 27 24 11 -2 15 0 8 5 -5 4 -10 18 -10 31 0
22 1 22 13 6 12 -17 13 -17 13 2 0 11 -5 25 -12 32 -8 8 -8 15 0 25 7 8 8 17
4 21 -4 4 -2 7 3 6 23 -5 30 1 32 28 1 15 -3 33 -9 40 -7 8 -7 12 0 12 6 0 9
6 6 14 -8 21 13 29 21 8 7 -15 9 -13 15 8 9 33 2 44 -18 28 -13 -11 -14 -11
-5 7 12 22 13 26 13 53 0 11 3 13 8 5 5 -8 13 -9 22 -3 8 6 10 10 4 10 -7 0
-14 9 -17 20 -3 12 -1 18 5 14 6 -4 8 2 3 17 -7 24 -7 24 9 4 16 -19 17 -18
15 20 -3 73 0 85 21 85 11 0 20 5 20 10 0 6 -4 10 -9 10 -16 0 -19 51 -4 66 8
7 12 22 8 33 -3 10 1 24 10 31 9 7 13 22 10 34 -3 12 -2 15 1 8 3 -6 10 -10
15 -6 5 3 9 -4 9 -15 0 -11 4 -22 9 -25 4 -3 6 6 3 19 -2 15 0 25 7 25 6 0 11
5 11 10 0 6 -11 10 -24 10 -19 0 -23 4 -19 20 3 11 10 20 15 20 6 0 5 7 -2 15
-7 8 -11 15 -9 16 32 6 41 5 53 -7 12 -11 15 -10 19 6 3 11 1 20 -4 20 -4 0
-6 6 -3 14 3 7 -1 16 -9 19 -11 4 -14 0 -11 -16 l5 -22 -12 22 c-6 12 -8 30
-4 40 5 12 9 14 12 6 7 -18 23 -16 23 2 0 8 4 15 9 15 4 0 6 -12 3 -26 -6 -35
13 -24 26 15 9 26 8 28 -17 27 -22 -1 -25 3 -23 23 3 16 0 21 -8 16 -9 -6 -9
-2 -1 14 8 14 21 21 42 21 18 0 28 -4 24 -10 -3 -5 -2 -10 3 -10 5 0 12 9 15
19 3 14 -2 20 -19 24 -14 2 -27 0 -30 -4 -3 -5 -10 -9 -16 -9 -7 0 -7 4 0 13
6 6 11 15 11 20 0 4 4 19 7 34 7 26 7 26 15 5 13 -34 29 -26 30 16 1 20 1 42
0 48 -1 6 6 11 14 11 8 0 15 -4 15 -8z m-2747 -109 c18 -36 22 -62 22 -135 0
-134 -25 -177 -84 -145 -50 26 -66 183 -35 323 l17 71 29 -34 c16 -19 39 -55
51 -80z m272 100 c3 -5 1 -10 -4 -10 -6 0 -11 5 -11 10 0 6 2 10 4 10 3 0 8
-4 11 -10z m2435 -20 c0 -5 -5 -10 -11 -10 -5 0 -7 5 -4 10 3 6 8 10 11 10 2
0 4 -4 4 -10z m-2626 -15 c-4 -8 -8 -15 -10 -15 -2 0 -4 7 -4 15 0 8 4 15 10
15 5 0 7 -7 4 -15z m186 -5 c0 -5 -4 -10 -10 -10 -5 0 -10 5 -10 10 0 6 5 10
10 10 6 0 10 -4 10 -10z m1145 -30 c3 -5 1 -10 -4 -10 -6 0 -11 5 -11 10 0 6
2 10 4 10 3 0 8 -4 11 -10z m45 -75 c0 -8 -2 -15 -4 -15 -2 0 -6 7 -10 15 -3
8 -1 15 4 15 6 0 10 -7 10 -15z m715 -30 c116 -31 202 -109 246 -223 32 -87
24 -196 -21 -280 -59 -110 -162 -180 -284 -189 -205 -17 -378 145 -378 352 0
164 108 303 266 341 70 17 102 17 171 -1z m452 -47 c-3 -8 -6 -5 -6 6 -1 11 2
17 5 13 3 -3 4 -12 1 -19z m-226 -574 c-9 -28 -9 -29 -10 -3 -1 14 2 29 6 32
11 12 13 2 4 -29z m-1919 -258 c166 -60 293 -350 274 -631 -25 -369 -227 -614
-434 -525 -100 43 -187 164 -234 327 -20 67 -23 101 -23 248 0 147 3 181 23
248 73 253 235 390 394 333z m189 -83 c22 -25 22 -26 2 -9 -18 14 -23 16 -23
5 0 -11 -2 -11 -10 1 -25 38 -2 40 31 3z m32 -40 c2 -5 7 -21 11 -37 6 -25 5
-28 -7 -17 -9 7 -13 21 -9 33 3 14 1 19 -6 14 -7 -4 -12 -2 -12 3 0 13 17 15
23 4z m1803 -58 c19 -30 13 -63 -19 -100 -20 -23 -87 -52 -87 -37 0 3 12 41
28 84 30 85 48 98 78 53z m-1770 -24 c11 9 14 8 14 -5 0 -9 5 -16 10 -16 6 0
5 -8 -2 -19 -11 -19 -13 -18 -30 10 -10 16 -18 33 -17 37 0 4 3 1 6 -6 4 -10
8 -10 19 -1z m41 -56 c0 -8 -4 -15 -9 -15 -10 0 -11 14 -1 23 9 10 10 9 10 -8z
m21 -80 c-1 -11 1 -25 5 -32 5 -8 1 -8 -18 0 -17 8 -23 18 -19 30 3 9 1 17 -5
17 -6 0 -11 6 -11 14 0 11 5 12 25 3 17 -8 25 -19 23 -32z m7 -57 c5 4 5 1 1
-5 -11 -20 -32 -15 -32 8 0 18 2 18 12 5 6 -9 15 -12 19 -8z m10 -59 c-5 -44
-12 -45 -13 -4 -1 19 3 35 8 35 5 0 7 -14 5 -31z m5 -58 c0 -20 -13 -41 -21
-35 -15 9 -10 44 6 44 8 0 15 -4 15 -9z m-8 -87 c2 -19 -1 -38 -6 -41 -6 -4
-8 -3 -4 1 3 4 2 20 -2 36 -7 24 -5 40 6 40 1 0 4 -16 6 -36z m-9 -85 c9 7 12
0 13 -25 l1 -34 -19 27 c-10 16 -18 33 -17 38 0 6 3 4 6 -3 3 -8 9 -10 16 -3z
m-13 -70 c0 -5 5 -7 11 -3 12 7 6 -62 -6 -74 -4 -4 -5 5 -3 21 3 15 1 30 -5
34 -6 3 -7 1 -3 -5 4 -7 3 -12 -3 -12 -6 0 -8 -8 -4 -17 4 -14 3 -15 -6 -7 -8
8 -9 18 -2 36 5 14 7 29 4 32 -4 3 -1 6 5 6 7 0 12 -5 12 -11z m-26 -110 c-2
-4 3 -9 11 -13 9 -3 12 -12 8 -22 -6 -16 -7 -16 -14 2 -6 17 -8 17 -17 -8 -6
-14 -16 -29 -22 -33 -9 -6 -9 -2 -1 14 7 11 9 21 6 21 -3 0 1 10 9 21 8 12 12
29 9 38 -4 13 -3 14 5 1 6 -8 9 -17 6 -21z m-11 -109 c-5 -19 -19 -33 -35 -36
-5 -1 -11 -2 -15 -3 -5 -1 -2 -5 5 -10 11 -6 8 -14 -12 -36 -15 -16 -30 -24
-37 -19 -9 5 -7 9 7 14 10 4 19 16 20 26 1 25 25 74 36 74 5 0 7 -10 3 -22 -5
-19 -3 -18 10 5 19 32 25 35 18 7z m-138 -150 c-3 -5 -12 -10 -18 -10 -7 0 -6
4 3 10 19 12 23 12 15 0z m1385 -232 c-15 -84 -40 -120 -83 -116 -40 4 -66 41
-76 109 l-7 55 57 33 c32 19 70 47 86 63 l28 29 3 -52 c2 -29 -2 -83 -8 -121z"/>
<path d="M2564 3645 c-15 -23 -15 -27 0 -50 30 -45 86 -28 86 27 0 49 -59 65
-86 23z"/>
<path d="M3758 3578 c-24 -20 -28 -44 -12 -67 17 -23 53 -28 72 -9 17 17 15
54 -4 72 -19 19 -35 20 -56 4z"/>
<path d="M2748 3033 c7 -3 16 -2 19 1 4 3 -2 6 -13 5 -11 0 -14 -3 -6 -6z"/>
<path d="M1983 2763 c-19 -7 -16 -19 5 -19 10 0 19 6 19 13 0 14 -4 15 -24 6z"/>
<path d="M3954 3192 c3 -18 -1 -52 -9 -74 -17 -52 -14 -57 14 -22 25 31 26 69
5 104 l-15 25 5 -33z"/>
<path d="M2102 3010 c-20 -33 -15 -85 14 -119 34 -40 51 -40 22 0 -18 23 -23
44 -22 85 0 30 0 54 -1 54 0 0 -6 -9 -13 -20z"/>
<path d="M2553 2486 c-103 -33 -180 -105 -231 -213 -23 -49 -27 -71 -27 -148
0 -82 3 -97 32 -156 39 -80 111 -150 191 -187 49 -23 70 -27 152 -27 83 1 102
4 151 28 193 94 275 310 190 502 -28 63 -110 146 -178 180 -48 24 -73 29 -148
32 -57 2 -105 -2 -132 -11z m271 -45 c115 -57 185 -160 194 -287 14 -212 -143
-380 -353 -378 -173 2 -317 126 -344 296 -27 166 70 329 232 389 80 30 186 22
271 -20z"/>
<path d="M2540 2187 c-13 -7 -29 -25 -34 -40 -22 -61 67 -114 113 -68 53 53
-12 142 -79 108z"/>
<path d="M3315 2023 c-69 -18 -103 -51 -97 -94 2 -12 -8 -18 -39 -23 -58 -9
-109 -61 -109 -109 0 -42 35 -88 80 -107 23 -10 30 -19 30 -41 0 -55 23 -132
46 -156 29 -29 88 -32 105 -5 11 18 13 18 45 1 68 -34 103 -2 115 107 8 71 23
102 51 104 14 0 38 59 38 94 0 26 -7 40 -31 60 -17 14 -34 26 -37 26 -4 0 -13
4 -21 9 -10 7 -11 13 -1 31 16 30 0 64 -37 84 -32 16 -108 27 -138 19z m66
-148 c80 -1 101 -5 132 -24 68 -42 59 -105 -21 -149 -113 -63 -355 -22 -391
66 -28 67 48 130 139 116 25 -4 88 -8 141 -9z m-52 -231 c10 -3 12 -17 6 -62
-9 -76 -20 -94 -52 -90 -38 4 -66 48 -71 113 l-5 56 54 -6 c30 -4 60 -9 68
-11z m139 -49 c-6 -71 -19 -95 -51 -95 -39 0 -57 28 -57 91 l0 58 43 4 c23 2
48 4 56 5 11 2 13 -11 9 -63z"/>
<path d="M4460 2598 c0 -4 7 -8 15 -8 8 0 15 4 15 8 0 5 -7 9 -15 9 -8 0 -15
-4 -15 -9z"/>
<path d="M4359 2263 c4 -15 13 -29 20 -31 9 -3 11 0 6 8 -4 7 -2 16 6 21 12 8
12 11 -1 19 -27 18 -39 12 -31 -17z"/>
<path d="M4335 2220 c-3 -5 -1 -10 4 -10 6 0 11 5 11 10 0 6 -2 10 -4 10 -3 0
-8 -4 -11 -10z"/>
<path d="M4340 2188 c0 -4 4 -8 9 -8 6 0 12 4 15 8 3 5 -1 9 -9 9 -8 0 -15 -4
-15 -9z"/>
<path d="M4170 1630 c0 -5 5 -10 11 -10 5 0 7 5 4 10 -3 6 -8 10 -11 10 -2 0
-4 -4 -4 -10z"/>
<path d="M4134 1526 c-8 -22 -2 -27 16 -16 12 7 12 12 3 21 -10 10 -14 9 -19
-5z"/>
<path d="M4022 2347 c-12 -13 -22 -33 -22 -46 0 -28 42 -71 70 -71 26 0 70 43
70 68 0 11 -9 31 -21 46 -26 33 -68 34 -97 3z"/>
<path d="M2160 1661 c-112 -36 -199 -150 -246 -321 -28 -102 -26 -330 4 -435
40 -137 115 -250 195 -292 119 -61 252 7 332 171 56 115 70 181 70 346 0 158
-18 248 -71 351 -65 129 -193 210 -284 180z"/>
<path d="M2536 1477 c3 -10 9 -15 12 -12 3 3 0 11 -7 18 -10 9 -11 8 -5 -6z"/>
<path d="M2581 1364 c0 -11 3 -14 6 -6 3 7 2 16 -1 19 -3 4 -6 -2 -5 -13z"/>
</g>
</svg>
