<svg width="192" height="41" viewBox="0 0 192 41" fill="none" xmlns="http://www.w3.org/2000/svg">
<g clip-path="url(#clip0)">
<path fill-rule="evenodd" clip-rule="evenodd" d="M168.547 8.86108C169.543 7.32189 170.797 6.62559 172.198 6.479C170.944 7.10201 169.727 7.90825 168.547 8.86108ZM186.211 11.573C187.243 11.9395 188.312 12.196 189.308 12.2693C189.308 21.8342 189.308 31.3992 189.308 40.9275C183.408 40.451 171.682 32.975 168.805 37.0795C171.571 32.6085 179.979 28.9438 186.211 28.8339V11.573Z" fill="#00205B"/>
<path fill-rule="evenodd" clip-rule="evenodd" d="M168.658 8.7511C170.28 6.25909 172.64 5.30626 175.369 5.15967C173.083 5.89261 170.797 7.02868 168.658 8.7511ZM186.321 6.62556C188.276 6.99203 190.193 7.28521 192 7.28521C191.926 16.8502 191.816 26.4151 191.742 35.9434C185.547 36.0167 171.903 32.4253 168.695 36.8962C171.571 32.4986 179.942 28.9804 186.137 28.9071L186.321 6.62556Z" fill="#1C79C0"/>
<path fill-rule="evenodd" clip-rule="evenodd" d="M168.547 8.86126C173.562 2.88775 180.237 2.81445 188.276 2.81445C188.276 12.3794 188.276 21.9443 188.276 31.4726C182.486 31.5826 173.12 32.1323 169.506 36.1268C172.825 32.0956 180.421 28.9806 186.211 28.8707C186.211 20.3685 186.211 12.4527 186.211 3.95052C182.302 3.73064 174.632 3.80393 168.547 8.86126Z" fill="#0DD3FF"/>
</g>
<g clip-path="url(#clip1)">
<path d="M21.6148 12.6489H1.45702C1.27312 12.6489 1.06094 12.7338 0.976062 12.8753L0.0424375 14.0638C-0.0424375 14.1911 0 14.2901 0.16975 14.2901L21.0773 14.2477C21.2612 14.2477 21.4309 14.1628 21.4734 13.9789L21.827 12.9177C21.8836 12.7763 21.7987 12.6489 21.6148 12.6489Z" fill="#415066"/>
<path d="M23.9205 8.60254H8.13378C7.94988 8.60254 7.73769 8.68743 7.65282 8.82891L6.7192 10.0174C6.63432 10.1447 6.67676 10.2437 6.84651 10.2437L22.8454 10.2862C22.9728 10.2862 23.1991 10.1588 23.284 10.0174L24.0337 8.87136C24.1327 8.72987 24.0903 8.60254 23.9205 8.60254Z" fill="#415066"/>
<path d="M20.653 16.6953H11.7977C11.6138 16.6953 11.4441 16.8226 11.3592 16.9641L10.7368 18.0677C10.6519 18.195 10.6943 18.3365 10.8641 18.3365L20.4974 18.379C20.6247 18.379 20.8086 18.2516 20.8086 18.0677L20.8935 17.0066C20.9076 16.8226 20.8228 16.6953 20.653 16.6953Z" fill="#415066"/>
<path d="M179.539 18.1948L186.357 15.6905L185.919 14.6011C184.377 10.8235 181.251 8.89936 176.611 8.89936C175.224 8.89936 173.909 9.055 172.721 9.38041C171.504 9.70582 170.415 10.201 169.495 10.8377C168.548 11.5027 167.784 12.3091 167.232 13.257C166.666 14.2333 166.383 15.351 166.383 16.596C166.383 17.5864 166.581 18.5061 166.992 19.2984C167.373 20.0624 167.869 20.7415 168.477 21.3074C169.071 21.8734 169.75 22.3261 170.5 22.694C170.542 22.7081 170.585 22.7364 170.613 22.7505L164.219 25.3397L158.136 22.411L157.599 23.3023C157.104 24.1371 156.481 24.7879 155.774 25.2407C155.109 25.6651 154.246 25.8915 153.228 25.8915C152.704 25.8915 152.223 25.7924 151.771 25.6085C151.318 25.4104 150.922 25.1416 150.597 24.8021C150.271 24.4625 150.002 24.038 149.804 23.5287C149.606 23.0194 149.507 22.4393 149.507 21.8309C149.507 21.0811 149.649 20.3595 149.918 19.6945C150.186 19.0295 150.568 18.4353 151.035 17.926C151.488 17.4308 152.054 17.0346 152.718 16.7517C153.369 16.4687 154.105 16.3131 154.869 16.3131C156.708 16.3131 157.783 17.0063 158.334 18.5627L158.716 19.6662L166.129 16.78L165.817 15.7754C165.181 13.7381 163.978 12.0686 162.224 10.8094C160.484 9.56433 158.264 8.92766 155.632 8.92766C153.511 8.92766 151.573 9.29552 149.861 10.0312C148.149 10.7669 146.678 11.7573 145.476 12.9882C144.273 14.2191 143.34 15.6623 142.689 17.2752C142.449 17.8694 142.25 18.4778 142.109 19.1003C142.052 17.8552 141.798 16.6526 141.345 15.5349C140.822 14.2333 140.072 13.0731 139.11 12.0969C138.148 11.1206 136.96 10.3283 135.602 9.77656C134.244 9.21063 132.716 8.92766 131.089 8.92766C129.109 8.92766 127.256 9.28137 125.587 9.96049C123.903 10.6538 122.432 11.6158 121.216 12.8326C120.141 13.9079 119.264 15.1812 118.599 16.596C118.684 15.8886 118.726 15.1812 118.726 14.4455C118.726 12.3798 118.401 10.4415 117.764 8.70129C117.113 6.93275 116.137 5.39059 114.864 4.10309C113.605 2.82974 112.007 1.81107 110.154 1.0895C108.315 0.382087 106.179 0.0142318 103.816 0.0142318H93.221L90.7455 13.9786C90.7172 13.5966 90.6748 13.2004 90.6323 12.8043C90.0524 8.57395 87.888 5.36229 84.394 2.98537C80.5464 0.410384 76.3026 -0.0282131 71.7901 0.764092C66.5278 1.68373 62.6377 3.89087 59.4125 8.10706C58.0262 9.90389 56.9936 11.8139 56.357 13.823C50.9816 13.823 44.135 13.823 42.1263 13.823C41.4614 13.823 41.1502 14.2616 41.0229 14.5304C40.4005 15.6764 39.3396 17.9684 38.7737 19.3267C38.4625 20.0765 38.6888 20.6425 39.6083 20.6425C44.5594 20.6425 46.5539 20.6425 48.1383 20.6425C47.6997 21.265 47.3461 21.7885 46.95 22.2695C44.9555 24.5191 42.4375 25.5661 39.4386 25.1699C35.9446 24.6889 33.5115 21.7885 33.469 18.2655C33.4266 14.7002 34.9685 11.8422 37.9816 9.90389C40.4995 8.27684 43.2014 7.88069 45.9881 9.23892C46.9217 9.67752 47.4027 10.1586 48.0675 10.9084C48.6475 11.5734 48.6899 11.5309 49.3548 11.347C52.0991 10.6396 53.9946 10.1161 56.7814 9.4087C57.3189 9.28137 57.4887 9.055 57.2199 8.65884C56.1165 6.11215 54.4332 3.9899 52.085 2.44774C48.4919 0.0566765 44.5169 -0.424366 40.3581 0.325494C35.2797 1.24513 31.1208 3.84842 27.9805 7.93728C25.0664 11.7149 23.6518 16.0301 24.2177 20.8264C24.6986 24.8728 26.5659 28.1269 29.8336 30.5887C33.37 33.2344 37.3874 34.0692 41.7302 33.4891C46.9925 32.7817 51.1513 30.1926 54.3341 26.0047C55.0556 25.0567 55.678 24.0522 56.1872 23.0194C56.937 25.6934 58.4223 27.9996 60.6007 29.8813C63.6987 32.527 67.3624 33.6589 71.394 33.7579C72.5398 33.6306 73.7422 33.5881 74.9305 33.3618C79.0469 32.527 82.6258 30.6736 85.5398 27.7308C87.11 26.1461 88.3266 24.4625 89.2036 22.6515L87.4495 32.5836H99.4593C102.416 32.5836 105.118 32.0884 107.466 31.098C109.828 30.1077 111.865 28.7777 113.52 27.1082C115.189 25.4387 116.477 23.4863 117.368 21.3216C117.34 21.6894 117.326 22.0714 117.326 22.4393C117.326 23.9249 117.594 25.3538 118.104 26.6413C118.627 27.943 119.377 29.1031 120.339 30.0794C121.3 31.0556 122.475 31.8479 123.847 32.3997C125.205 32.9656 126.733 33.2486 128.359 33.2486C130.326 33.2486 132.179 32.8949 133.862 32.2158C135.545 31.5225 137.017 30.5604 138.233 29.3437C139.45 28.1269 140.412 26.6696 141.091 25.0143C141.345 24.3776 141.557 23.7126 141.727 23.0194C141.798 24.3493 142.067 25.5944 142.533 26.7262C143.085 28.0703 143.863 29.2305 144.867 30.1926C145.858 31.1546 147.06 31.9186 148.446 32.4421C149.819 32.9656 151.318 33.2344 152.916 33.2344C155.321 33.2344 157.486 32.7251 159.325 31.7206C161.121 30.7443 162.748 29.1314 164.162 26.9243C164.445 27.7025 164.813 28.4382 165.294 29.1173C165.86 29.9379 166.581 30.6736 167.43 31.282C168.279 31.8904 169.269 32.3714 170.401 32.711C171.518 33.0505 172.791 33.2203 174.163 33.2203C175.62 33.2203 176.993 33.0364 178.252 32.6685C179.539 32.2865 180.671 31.7347 181.618 31.0273C182.594 30.2916 183.372 29.3861 183.938 28.325C184.504 27.2497 184.787 26.0188 184.787 24.6889C184.787 23.0901 184.249 21.647 183.174 20.4302C182.297 19.4823 181.081 18.7183 179.539 18.1948ZM76.3026 24.3918C73.9544 25.5802 71.5213 25.7075 69.1024 24.6606C65.9196 23.2457 64.2362 19.7794 65.0284 16.3414C66.0045 12.2101 68.6497 9.60678 72.7662 8.68714C76.9675 7.72506 80.9849 10.1869 81.7912 14.5445C81.8761 14.9831 81.8761 15.4217 81.9185 16.0018C81.7063 19.7794 79.7966 22.5949 76.3026 24.3918ZM109.956 18.9447C109.446 20.119 108.711 21.1659 107.763 22.0431C106.815 22.9203 105.655 23.6277 104.311 24.1371C102.953 24.6464 101.426 24.9152 99.7564 24.9152H96.7858L99.8554 7.71091H103.222C105.797 7.71091 107.706 8.33343 108.909 9.56433C110.111 10.8094 110.734 12.6628 110.734 15.0822C110.734 16.4687 110.479 17.7703 109.956 18.9447ZM133.904 22.4676C133.636 23.1326 133.254 23.7409 132.759 24.2503C132.278 24.7596 131.698 25.1699 131.047 25.4529C130.41 25.7358 129.689 25.8773 128.925 25.8773C128.402 25.8773 127.921 25.7783 127.468 25.5944C127.001 25.3963 126.605 25.1275 126.252 24.7738C125.912 24.4342 125.643 24.0239 125.445 23.5287C125.247 23.0194 125.148 22.4959 125.148 21.9017C125.148 21.1235 125.29 20.3878 125.558 19.7228C125.827 19.0578 126.209 18.4636 126.704 17.9401C127.199 17.4308 127.765 17.0205 128.416 16.7375C129.052 16.4546 129.774 16.3131 130.538 16.3131C131.061 16.3131 131.556 16.4121 132.023 16.6102C132.49 16.8083 132.886 17.0629 133.211 17.4166C133.551 17.7562 133.82 18.1806 134.018 18.6758C134.216 19.171 134.315 19.7228 134.315 20.3029C134.315 21.0669 134.173 21.8026 133.904 22.4676ZM176.498 25.7358C176.002 26.0047 175.366 26.132 174.602 26.132C173.739 26.132 173.018 25.9339 172.395 25.5378C171.858 25.1982 171.518 24.6606 171.348 23.8966L171.15 22.9769C171.646 23.1891 172.155 23.3589 172.664 23.4863L174.913 24.038C175.946 24.3069 176.427 24.5757 176.653 24.7455C176.837 24.8869 176.894 25.0143 176.894 25.2265C176.894 25.368 176.894 25.5378 176.498 25.7358ZM178.605 17.926L175.677 17.162C174.772 16.9356 174.206 16.6102 174.206 16.3131C174.206 16.2423 174.206 16.1433 174.461 15.9877C174.701 15.8462 175.196 15.6623 176.158 15.6623C176.795 15.6623 177.36 15.8037 177.856 16.115C178.294 16.3838 178.563 16.7375 178.704 17.2186L178.945 18.0109C178.832 17.9826 178.718 17.9543 178.605 17.926Z" fill="#415066"/>
</g>
<defs>
<clipPath id="clip0">
<rect width="23.4528" height="38.1498" fill="white" transform="matrix(-1 0 0 1 192 2.81445)"/>
</clipPath>
<clipPath id="clip1">
<rect width="186.371" height="33.772" fill="white"/>
</clipPath>
</defs>
</svg>
